# xmcd CD database file
#
# Track frame offsets:
#	150
#	11577
#	24187
#	42737
#	58995
#	77770
#	95590
#	107827
#	121025
#	133590
#	146885
#	162880
#	175562
#	188437
#	200955
#	212252
#	226100
#
# Disc length: 3276 seconds
#
# Revision: 0
# Processed by: cddbd v1.5PL3 Copyright (c) Steve Scherf et al.
# Submitted via: CDex 1.51
#
DISCID=e10cca11
DTITLE=Various Artist - Countrys Best Yet
DYEAR=1983
DGENRE=Country
TTITLE0=Mammas Don't Let Your Babies Grow Up Yo Be Cowboys
TTITLE1=Crying
TTITLE2=Baby I Lied
TTITLE3=When We Make Love
TTITLE4=Stranger In My House
TTITLE5=Blue Bayou
TTITLE6=9 To 5
TTITLE7=Kiss An Angel Good Mornin'
TTITLE8=East Bound And Down
TTITLE9=Help Me Make It Through The Night
TTITLE10=Sundown
TTITLE11=In The Ghetto
TTITLE12=My Heroes Have Always Been Cowboys
TTITLE13=I'm A Ramblin' Man
TTITLE14=Adios Amigo
TTITLE15=Coat of Many Colours
TTITLE16=Watermelon Wine
EXTD=YEAR: 1983
EXTT0=
EXTT1=
EXTT2=
EXTT3=
EXTT4=
EXTT5=
EXTT6=
EXTT7=
EXTT8=
EXTT9=
EXTT10=
EXTT11=
EXTT12=
EXTT13=
EXTT14=
EXTT15=
EXTT16=
PLAYORDER=
